<!DOCTYPE svg PUBLIC "-//W3C//DTD SVG 20010904//EN" "http://www.w3.org/TR/2001/REC-SVG-20010904/DTD/svg10.dtd">
<svg version="1.0" xmlns="http://www.w3.org/2000/svg" width="773px" height="410px" viewBox="0 0 7730 4100" preserveAspectRatio="xMidYMid meet">
<g id="layer1" fill="#010101" stroke="none">
 <path d="M2422 3409 c-96 -19 -192 -81 -214 -138 -7 -19 -4 -29 13 -47 l22 -24 34 35 c44 45 85 52 176 30 218 -53 430 -276 647 -683 45 -84 80 -156 77 -158 -3 -3 -29 12 -59 33 -83 61 -206 133 -227 133 -30 0 -77 -45 -96 -92 -24 -59 -22 -174 5 -263 26 -83 108 -226 189 -327 194 -243 459 -408 633 -396 78 6 109 34 116 107 l5 52 -27 -13 c-121 -54 -502 281 -711 625 -46 77 -91 184 -81 195 20 19 172 -96 324 -246 121 -120 232 -259 323 -408 39 -63 57 -84 73 -84 34 0 93 19 115 38 21 17 20 18 -75 182 -52 90 -122 216 -156 280 -33 63 -80 149 -103 190 -23 41 -66 118 -95 170 -160 286 -274 446 -436 611 -97 99 -192 158 -304 188 -80 22 -101 24 -168 10z"/>
 <path d="M3265 3397 c-67 -25 -155 -101 -155 -134 0 -11 9 -28 20 -38 19 -17 21 -17 60 19 36 33 45 36 98 36 239 0 511 -270 748 -741 30 -60 54 -111 54 -113 0 -3 -42 24 -92 58 -147 99 -182 118 -213 110 -61 -15 -114 -144 -100 -243 23 -168 141 -377 310 -547 123 -124 305 -245 412 -273 57 -16 147 -16 183 -1 32 13 60 63 60 107 0 30 0 30 -52 26 -43 -4 -62 0 -103 22 -180 97 -451 381 -588 617 -43 76 -83 176 -73 185 14 14 148 -83 259 -186 163 -151 276 -288 383 -464 40 -65 64 -95 74 -93 8 2 31 7 51 10 21 4 49 16 63 27 24 19 26 23 13 43 -29 44 -166 285 -217 381 -29 55 -72 134 -95 175 -23 41 -71 127 -106 190 -197 357 -396 622 -553 736 -143 104 -313 139 -441 91z"/>
 <path d="M6176 2997 c15 -42 140 -267 187 -335 28 -40 73 -94 101 -119 80 -72 131 -90 313 -108 87 -9 180 -22 207 -30 165 -49 285 -211 233 -315 -18 -36 -70 -67 -161 -95 -119 -37 -185 -65 -242 -101 -42 -26 -57 -45 -92 -112 -46 -87 -94 -141 -185 -205 -69 -48 -69 -45 -9 -189 46 -108 56 -159 37 -184 -11 -16 -17 -16 -39 -6 -81 37 -271 203 -361 316 -63 78 -125 188 -125 221 0 11 66 -48 173 -153 186 -184 235 -228 244 -219 3 3 -4 19 -16 36 -38 54 -162 294 -183 356 -32 95 -56 203 -63 293 -4 45 -12 82 -17 82 -18 0 -61 -113 -66 -176 -2 -35 -7 -64 -9 -64 -9 0 -127 82 -192 134 -78 62 -173 177 -243 293 -44 73 -137 266 -165 341 -10 29 -13 31 -40 22 -15 -6 -41 -21 -57 -34 l-29 -23 36 -119 c107 -357 394 -764 751 -1064 49 -41 132 -113 185 -159 151 -132 208 -163 249 -137 20 12 13 77 -19 166 -64 181 -64 180 -53 198 6 9 39 36 73 59 92 61 108 79 138 157 41 104 92 151 223 205 123 52 214 81 251 81 33 0 89 60 89 94 0 33 -94 183 -152 243 -80 81 -136 102 -331 118 -188 17 -209 21 -260 47 -86 43 -197 182 -291 364 -35 68 -103 159 -90 121z"/>
 <path d="M738 2734 c-143 -34 -234 -116 -267 -240 -11 -41 -10 -43 58 -162 101 -175 262 -468 482 -879 131 -245 181 -344 175 -351 -11 -11 -122 66 -196 135 -80 75 -179 210 -208 285 -8 21 -19 38 -23 38 -12 0 -68 -50 -80 -71 -5 -10 -14 -40 -18 -66 -11 -57 12 -115 81 -208 97 -132 242 -224 433 -277 114 -31 338 -30 440 2 205 64 337 198 381 386 19 82 14 269 -10 376 -52 231 -218 518 -408 705 -95 93 -120 114 -203 170 -216 145 -450 203 -637 157z m299 -223 c273 -90 549 -357 696 -671 79 -169 135 -396 121 -495 -17 -128 -78 -216 -187 -270 -45 -22 -76 -29 -146 -33 -96 -5 -221 5 -221 18 0 4 24 22 53 38 28 16 67 46 86 66 l34 35 -38 53 c-51 71 -252 376 -305 463 -127 207 -242 400 -285 480 -64 118 -155 306 -155 322 0 19 27 22 160 18 92 -2 141 -8 187 -24z"/>
 <path d="M4749 2673 c-61 -24 -81 -40 -116 -93 -36 -54 -44 -84 -44 -166 0 -132 96 -355 223 -519 68 -87 200 -215 272 -263 80 -53 180 -92 235 -92 46 0 93 30 137 87 31 41 32 43 19 85 -50 165 -118 282 -215 371 -79 73 -216 159 -341 214 -60 26 -111 55 -115 63 -3 8 -8 49 -11 91 -5 69 -4 78 16 98 57 57 207 -10 382 -169 l79 -72 20 24 20 23 -89 86 c-101 98 -187 162 -280 209 -78 40 -131 46 -192 23z m222 -505 c125 -81 253 -210 302 -304 37 -73 46 -104 27 -104 -6 0 -37 13 -69 29 -105 54 -220 175 -320 340 -75 124 -73 126 60 39z"/>
 <path d="M2028 2651 c-55 -22 -91 -58 -121 -121 -16 -36 -21 -63 -20 -130 2 -138 61 -300 168 -461 147 -221 363 -399 504 -416 44 -5 49 -3 73 25 14 17 34 51 44 75 16 40 23 46 56 51 79 13 99 101 58 261 -85 331 -350 628 -635 710 -33 10 -64 19 -70 21 -5 2 -31 -5 -57 -15z m180 -133 c80 -39 208 -159 271 -253 96 -143 171 -351 171 -475 0 -60 -6 -62 -86 -19 -243 127 -521 550 -488 739 4 19 9 39 11 43 7 13 50 0 121 -35z"/>
 <path d="M6586 1912 c-6 -10 38 -54 72 -71 24 -13 25 -12 36 40 5 24 2 27 -32 33 -51 8 -70 8 -76 -2z"/>
 </g>
<g id="layer2" fill="#fcfcfc" stroke="none">
 <path d="M0 2050 l0 -2050 3865 0 3865 0 0 2050 0 2050 -3865 0 -3865 0 0 -2050z m2590 1349 c112 -30 207 -89 304 -188 162 -165 276 -325 436 -611 29 -52 72 -129 95 -170 23 -41 70 -127 103 -190 34 -64 104 -190 156 -280 95 -164 96 -165 75 -182 -22 -19 -81 -38 -115 -38 -16 0 -34 21 -73 84 -91 149 -202 288 -323 408 -152 150 -304 265 -324 246 -10 -11 35 -118 81 -195 82 -135 185 -264 308 -385 186 -184 333 -271 403 -240 l27 13 -5 -52 c-7 -73 -38 -101 -116 -107 -174 -12 -439 153 -633 396 -81 101 -163 244 -189 327 -27 89 -29 204 -5 263 19 47 66 92 96 92 21 0 144 -72 227 -133 30 -21 56 -36 59 -33 8 8 -152 302 -225 411 -117 175 -255 315 -382 387 -59 34 -179 62 -224 54 -22 -4 -49 -21 -69 -41 l-34 -35 -22 24 c-17 18 -20 28 -13 47 28 73 162 143 282 148 14 1 59 -8 100 -20z m981 -18 c100 -42 178 -100 271 -202 148 -162 264 -332 417 -609 35 -63 83 -149 106 -190 23 -41 66 -120 95 -175 51 -96 188 -337 217 -381 13 -20 11 -24 -13 -43 -14 -11 -42 -23 -63 -27 -20 -3 -43 -8 -51 -10 -10 -2 -34 28 -74 93 -107 176 -220 313 -383 464 -111 103 -245 200 -259 186 -10 -9 30 -109 73 -185 137 -236 408 -520 588 -617 41 -22 60 -26 103 -22 52 4 52 4 52 -26 0 -44 -28 -94 -60 -107 -36 -15 -126 -15 -183 1 -107 28 -289 149 -412 273 -169 170 -287 379 -310 547 -14 99 39 228 100 243 31 8 66 -11 213 -110 50 -34 92 -61 92 -58 0 12 -115 232 -164 313 -76 127 -131 203 -214 294 -153 168 -288 247 -424 247 -53 0 -62 -3 -98 -36 -39 -36 -41 -36 -60 -19 -31 28 -24 55 28 104 68 66 142 92 252 88 68 -3 100 -10 161 -36z m2695 -505 c94 -182 205 -321 291 -364 51 -26 72 -30 260 -47 195 -16 251 -37 331 -118 58 -60 152 -210 152 -243 0 -34 -56 -94 -89 -94 -37 0 -128 -29 -251 -81 -131 -54 -182 -101 -223 -205 -30 -78 -46 -96 -138 -157 -34 -23 -67 -50 -73 -59 -11 -18 -11 -17 53 -198 32 -89 39 -154 19 -166 -41 -26 -98 5 -249 137 -53 46 -136 118 -185 159 -357 300 -644 707 -751 1064 l-36 119 29 23 c16 13 42 28 57 34 27 9 30 7 40 -22 28 -75 121 -268 165 -341 70 -116 165 -231 243 -293 65 -52 183 -134 192 -134 2 0 7 29 9 64 5 63 48 176 66 176 5 0 13 -37 17 -82 7 -90 31 -198 63 -293 21 -62 145 -302 183 -356 12 -17 19 -33 16 -36 -9 -9 -58 35 -244 219 -107 105 -173 164 -173 153 0 -33 62 -143 125 -221 90 -113 280 -279 361 -316 22 -10 28 -10 39 6 19 25 9 76 -37 184 -60 144 -60 141 9 189 91 64 139 118 185 205 35 67 50 86 92 112 57 36 123 64 242 101 91 28 143 59 161 95 52 104 -68 266 -233 315 -27 8 -120 21 -207 30 -182 18 -233 36 -313 108 -28 25 -73 79 -101 119 -47 68 -172 293 -187 335 -13 38 55 -53 90 -121z m-5256 -142 c124 -23 240 -73 365 -157 177 -119 345 -304 462 -508 59 -104 128 -274 149 -367 24 -107 29 -294 10 -376 -44 -188 -176 -322 -381 -386 -102 -32 -326 -33 -440 -2 -191 53 -336 145 -433 277 -69 93 -92 151 -81 208 4 26 13 56 18 66 12 21 68 71 80 71 4 0 15 -17 23 -38 29 -75 128 -210 208 -285 74 -69 185 -146 196 -135 6 7 -44 106 -175 351 -220 411 -381 704 -482 879 -68 119 -69 121 -58 162 53 198 264 292 539 240z m3931 -84 c93 -47 179 -111 280 -209 l89 -86 -20 -23 -20 -24 -79 72 c-96 88 -178 143 -249 170 -68 26 -107 25 -133 -1 -20 -20 -21 -29 -16 -98 3 -42 8 -83 11 -91 4 -8 55 -37 115 -63 125 -55 262 -141 341 -214 97 -89 165 -206 215 -371 13 -42 12 -44 -19 -85 -68 -90 -125 -105 -239 -64 -161 59 -358 243 -490 457 -80 132 -138 296 -138 394 0 82 8 112 44 166 35 53 55 69 116 93 61 23 114 17 192 -23z m-2786 -5 c285 -82 550 -379 635 -710 41 -160 21 -248 -58 -261 -33 -5 -40 -11 -56 -51 -10 -24 -30 -58 -44 -75 -24 -28 -29 -30 -73 -25 -141 17 -357 195 -504 416 -107 161 -166 323 -168 461 -1 93 17 148 68 204 25 28 110 68 130 62 6 -2 37 -11 70 -21z m4507 -731 c39 -7 41 -12 22 -72 -5 -16 -36 -1 -76 36 -42 39 -26 49 54 36z"/>
 <path d="M708 2534 c-10 -3 -18 -11 -18 -17 0 -16 91 -204 155 -322 43 -80 158 -273 285 -480 53 -87 254 -392 305 -463 l38 -53 -34 -35 c-19 -20 -58 -50 -86 -66 -29 -16 -53 -34 -53 -38 0 -13 125 -23 221 -18 189 11 309 119 333 303 14 99 -42 326 -121 495 -124 266 -348 506 -584 625 -101 51 -166 67 -299 70 -69 2 -133 1 -142 -1z"/>
 <path d="M4860 2222 c0 -16 102 -177 151 -239 69 -86 152 -159 220 -194 32 -16 63 -29 69 -29 19 0 10 31 -27 104 -49 94 -177 223 -302 304 -94 61 -111 70 -111 54z"/>
 <path d="M2087 2553 c-13 -22 -16 -84 -7 -138 12 -73 87 -231 161 -337 93 -132 220 -253 323 -307 80 -43 86 -41 86 19 0 124 -75 332 -171 475 -63 94 -191 214 -271 253 -71 35 -114 48 -121 35z"/>
 </g>

</svg>